# Blender v2.80 (sub 75) OBJ File: ''
# www.blender.org
mtllib kolab.mtl
o Object_6_Mesh_0
v 0.226663 0.085047 0.098036
v -0.154574 -0.075153 0.098036
v -0.154574 0.085047 0.098036
v 0.226663 -0.075153 0.098036
v -0.154574 0.085047 0.258235
v 0.226663 -0.075153 0.258235
v 0.226663 0.085047 0.258235
v -0.154574 -0.075153 0.258235
v 0.226663 0.085047 0.258235
v 0.226663 -0.075153 0.098036
v 0.226663 0.085047 0.098036
v 0.226663 -0.075153 0.258235
v -0.154574 0.085047 0.098036
v -0.154574 -0.075153 0.258235
v -0.154574 0.085047 0.258235
v -0.154574 -0.075153 0.098036
v -0.154574 0.085047 0.098036
v 0.226663 0.085047 0.258235
v 0.226663 0.085047 0.098036
v -0.154574 0.085047 0.258235
v -0.154574 -0.075153 0.258235
v 0.226663 -0.075153 0.098036
v 0.226663 -0.075153 0.258235
v -0.154574 -0.075153 0.098036
vt 0.000000 1.000000
vt 0.000000 1.000000
vt 0.000000 1.000000
vt 0.000000 1.000000
vt 0.000000 1.000000
vt 0.000000 1.000000
vt 0.000000 1.000000
vt 0.000000 1.000000
vt 0.000000 1.000000
vt 0.000000 1.000000
vt 0.000000 1.000000
vt 0.000000 1.000000
vt 0.000000 1.000000
vt 0.000000 1.000000
vt 0.000000 1.000000
vt 0.000000 1.000000
vt 0.000000 1.000000
vt 0.000000 1.000000
vt 0.000000 1.000000
vt 0.000000 1.000000
vt 0.000000 1.000000
vt 0.000000 1.000000
vt 0.000000 1.000000
vt 0.000000 1.000000
vn 0.0000 0.0000 -1.0000
vn 0.0000 -0.0000 1.0000
vn 1.0000 0.0000 0.0000
vn -1.0000 -0.0000 0.0000
vn 0.0000 1.0000 0.0000
vn 0.0000 -1.0000 -0.0000
usemtl material
s off
f 1/1/1 2/2/1 3/3/1
f 1/1/1 4/4/1 2/2/1
f 5/5/2 6/6/2 7/7/2
f 5/5/2 8/8/2 6/6/2
f 9/9/3 10/10/3 11/11/3
f 9/9/3 12/12/3 10/10/3
f 13/13/4 14/14/4 15/15/4
f 13/13/4 16/16/4 14/14/4
f 17/17/5 18/18/5 19/19/5
f 17/17/5 20/20/5 18/18/5
f 21/21/6 22/22/6 23/23/6
f 21/21/6 24/24/6 22/22/6
